<svg width="50" height="50" viewBox="0 0 50 50" fill="none" xmlns="http://www.w3.org/2000/svg">
<path d="M45.8335 35.25V41.5C45.8358 42.0802 45.717 42.6545 45.4845 43.1861C45.2521 43.7177 44.9112 44.195 44.4836 44.5872C44.0561 44.9794 43.5513 45.2781 43.0017 45.4639C42.4521 45.6498 41.8697 45.7189 41.2918 45.6666C34.8811 44.9701 28.7231 42.7794 23.3126 39.2708C18.279 36.0722 14.0113 31.8045 10.8126 26.7708C7.29177 21.3358 5.10065 15.1479 4.41681 8.70831C4.36475 8.1322 4.43322 7.55156 4.61785 7.00336C4.80249 6.45516 5.09925 5.95141 5.48924 5.52419C5.87923 5.09696 6.35391 4.75562 6.88304 4.5219C7.41218 4.28818 7.98419 4.16719 8.56265 4.16664H14.8126C15.8237 4.15669 16.8039 4.51473 17.5705 5.174C18.3371 5.83328 18.8378 6.74883 18.9793 7.74998C19.2431 9.75012 19.7323 11.714 20.4376 13.6041C20.7179 14.3498 20.7786 15.1602 20.6125 15.9393C20.4463 16.7184 20.0603 17.4335 19.5001 18L16.8543 20.6458C19.8201 25.8615 24.1386 30.1801 29.3543 33.1458L32.0001 30.5C32.5666 29.9398 33.2817 29.5538 34.0608 29.3877C34.8399 29.2215 35.6503 29.2822 36.396 29.5625C38.2861 30.2678 40.25 30.757 42.2502 31.0208C43.2622 31.1636 44.1864 31.6733 44.8471 32.4531C45.5078 33.2329 45.8588 34.2283 45.8335 35.25Z" stroke="#155A45" stroke-width="2" stroke-linecap="round" stroke-linejoin="round"/>
</svg>
