<svg width="60" height="39" viewBox="0 0 60 39" fill="none" xmlns="http://www.w3.org/2000/svg">
<path d="M12.4 11.2034L16.5375 6.7053L10.825 5.78332L8.26249 0L5.71249 5.78332L0 6.7053L4.13749 11.2034L3.1625 17.5735L8.26249 14.5701L13.375 17.5735L12.4 11.2034Z" fill="#155A45"/>
<path d="M34.1375 11.2034L38.2625 6.7053L32.55 5.78332L30 0L27.45 5.78332L21.7375 6.7053L25.8625 11.2034L24.8875 17.5735L30 14.5701L35.1125 17.5735L34.1375 11.2034Z" fill="#155A45"/>
<path d="M60 6.7053L54.2875 5.78332L51.7375 0L49.175 5.78332L43.4625 6.7053L47.6 11.2034L46.625 17.5735L51.7375 14.5701L56.8375 17.5735L55.8625 11.2034L60 6.7053Z" fill="#155A45"/>
<path d="M21.6875 27.0585L19.1375 21.2612L16.575 27.0585L10.8625 27.9805L15 32.4786L14.025 38.8486L19.1375 35.8452L24.2375 38.8486L23.2625 32.4786L27.4 27.9805L21.6875 27.0585Z" fill="#155A45"/>
<path d="M43.425 27.0585L40.8625 21.2612L38.3125 27.0585L32.6 27.9805L36.7375 32.4786L35.7625 38.8486L40.8625 35.8452L45.975 38.8486L45 32.4786L49.1375 27.9805L43.425 27.0585Z" fill="#155A45"/>
</svg>
