<svg width="60" height="34" viewBox="0 0 60 34" fill="none" xmlns="http://www.w3.org/2000/svg">
<path d="M57.8484 10.2H55.8918C54.7566 10.2 54 11.2716 54 12.468V21H14.9676C14.9676 21 11.205 21.441 8.6274 19.2156C5.8572 16.824 6 13.4604 6 13.4604V1.998C6 0.8016 5.364 0 4.2282 0H2.0916C0.9558 0 0 0.8016 0 1.998V33.6H5.4504L6.8946 27H53.1054L54.5496 33.6H60V12.468C60 11.2716 58.9842 10.2 57.8484 10.2Z" fill="#155A45"/>
<path d="M50.2278 14.628C49.7616 13.587 48.4038 12.729 46.92 12.39C44.001 11.7222 43.2654 11.2488 36.2376 11.2488C30.8304 11.2488 26.9808 12.5292 24.6564 13.4202C23.232 13.9656 22.2 15.1734 22.2 16.092C22.2 16.1082 22.2 16.1142 22.2 16.1274C22.2 16.1304 22.2 16.1634 22.2 16.224C22.2 16.2366 22.2 16.2426 22.2 16.2594C22.2 17.8248 23.4846 18.6 25.005 18.6H47.7108C49.2306 18.6 50.466 17.91 50.466 16.344C50.4654 15.9678 50.4198 15.0564 50.2278 14.628Z" fill="#155A45"/>
<path d="M18.4278 13.7538C17.1576 12.7062 16.0272 11.7894 14.0718 10.62C12.315 9.56944 10.2828 9.53584 9.39058 10.7856C8.54038 11.9766 9.34798 14.6088 10.533 15.9246C11.9868 17.5392 14.1576 18.3558 15.7902 18.4056C17.1576 18.447 18.933 18.7644 19.794 17.313C20.4204 16.2594 19.593 14.7144 18.4278 13.7538Z" fill="#155A45"/>
</svg>
