<svg width="40" height="56" viewBox="0 0 40 56" fill="none" xmlns="http://www.w3.org/2000/svg">
<path d="M37.9474 9.82262C32.1579 9.29326 26.7368 6.52881 22.6316 1.941L21.5789 0.705817C21.1579 0.235272 20.5789 0 20 0C19.4211 0 18.8421 0.235272 18.4211 0.705817L17.3684 1.941C13.2632 6.52881 7.84211 9.29326 2.05263 9.82262C0.894737 9.94026 0 10.999 0 12.293V19.41C0 34.3498 7.26316 48.2308 18.8947 55.5831C19.2105 55.8184 19.6316 55.8772 20 55.8772C20.3684 55.8772 20.7368 55.7596 21.1053 55.5831C32.7368 48.2308 40 34.3498 40 19.41V12.293C40 10.999 39.1053 9.94026 37.9474 9.82262ZM29.6316 23.1743L19.7895 35.1144C19.3684 35.585 18.7895 35.879 18.2105 35.9379H18.1579C17.5789 35.9379 17 35.7026 16.5789 35.232L11.0526 28.9385C10.2105 27.9974 10.2105 26.4093 11.0526 25.4682C11.8947 24.5271 13.3158 24.5271 14.1579 25.4682L18.1053 29.8796L26.3684 19.8217C27.2105 18.8218 28.5789 18.763 29.4737 19.6452C30.3684 20.5863 30.4211 22.1744 29.6316 23.1743Z" fill="#155A45"/>
</svg>
